<svg width="1024" height="1024" viewBox="0 0 1024 1024" fill="none" xmlns="http://www.w3.org/2000/svg">
<g clip-path="url(#clip0_7027_3)">
<path d="M0 0H1024V1024H0V0Z" fill="#FAF9F9"/>
<path d="M515 585.225C508 583.835 501.13 591.22 495.232 594.825C474.996 607.205 456.647 625.415 433.397 631.765C407.702 638.78 376.726 622.535 370.534 596.015C364.103 566.325 382.567 532.77 405.614 514.85C414.51 507.93 424.761 501.515 434.278 495.126L487.517 459.582C493.342 455.722 499.44 451.781 505.115 447.709C506.985 446.37 508.46 443.377 510.875 443.287C512.335 443.232 514.62 443.614 515.78 444.58C519.945 448.955 535.495 458.493 541.26 462.337L588.135 493.545C597.92 500.03 608.245 506.345 617.65 513.575C640.13 530.865 654.13 554.57 655.07 583.1C655.99 611.015 632.535 633.015 604.99 633.255C597.665 633.355 590.39 632 583.59 629.28C576.75 626.475 571.065 623.155 564.335 618.63C548.27 607.835 531.66 596.71 515.565 585.865C515.375 585.65 515.185 585.44 515 585.225Z" fill="#DEA24F"/>
<path d="M515.78 444.581C519.945 448.956 535.495 458.493 541.26 462.337L588.135 493.546C597.92 500.03 608.245 506.345 617.65 513.575C640.13 530.865 654.13 554.57 655.07 583.1C655.99 611.015 632.535 633.015 604.99 633.255C597.665 633.355 590.39 632 583.59 629.28C576.75 626.475 571.065 623.155 564.335 618.63C548.27 607.835 531.66 596.71 515.565 585.865C515.375 585.65 515.185 585.44 515 585.225C515.93 583.565 515.57 571.575 515.57 568.855L515.56 538.36C515.455 507.1 515.525 475.841 515.78 444.581Z" fill="#EAC15F"/>
<path d="M379.111 192.484C381.529 190.762 382.955 184.343 384.041 181.017L393.761 151.414C401.255 128.467 407.698 108.582 433.689 100.068C442.129 97.242 451.134 96.529 459.914 97.9905C500.135 104.975 512.79 148.576 505.495 183.747C502.255 199.378 497.5 211.924 492.242 226.904C486.963 242.291 481.59 257.646 476.121 272.967C473.696 279.813 471.345 286.686 469.068 293.584C467.355 298.72 466.322 305.109 461.844 308.2C461.421 308.49 460.994 308.774 460.564 309.052C436.599 308.633 412.631 308.482 388.663 308.598C343.873 308.59 303.893 311.61 268.766 277.584C248.544 257.996 243.237 229.615 264.221 208.41C283.802 188.622 311.345 192.1 336.532 192.37L379.111 192.484Z" fill="#514A92"/>
<path d="M460.564 309.052C436.599 308.633 412.631 308.482 388.663 308.598C343.873 308.59 303.893 311.61 268.766 277.584C248.544 257.996 243.237 229.615 264.221 208.41C283.802 188.622 311.345 192.1 336.532 192.37L379.111 192.484C378.369 193.95 377.498 195.574 376.876 197.071C385.384 207.071 394.39 219.605 402.279 230.255L442.403 284.543C446.594 290.088 450.715 295.687 454.763 301.338C456.038 303.133 459.073 308.428 460.564 309.052Z" fill="#6365AF"/>
<path d="M561.325 307.538C557.455 303.328 556.215 297.217 554.47 291.789C552.435 285.371 550.305 278.982 548.085 272.625L531.07 223.962C525.21 207.214 520.535 197.987 518.035 179.5C516.245 166.653 517.375 153.568 521.335 141.217C526.32 126.097 536.5 111.483 550.92 104.262C571.895 93.7585 597.755 97.666 613.02 115.967C621.59 126.243 625.515 137.988 629.955 150.389L639.935 178.263C641.62 182.899 643.51 188.102 645.26 192.74C645.76 194.063 646.315 193.935 647.39 194.202C660.13 193.512 674.015 194.008 686.845 194.017C702.24 194.028 719.705 192.062 734.6 195.759C773.785 205.487 788.345 246.261 759.72 276.452C735.135 302.377 705.75 308.11 671.535 308.744C635.975 309.517 600.62 310.117 565.18 310.603C563.97 309.737 562.24 308.619 561.325 307.538Z" fill="#6365AF"/>
<path d="M561.325 307.538C557.455 303.328 556.215 297.217 554.47 291.789C552.435 285.371 550.305 278.982 548.085 272.625L531.07 223.962C525.21 207.214 520.535 197.987 518.035 179.5C516.245 166.653 517.375 153.568 521.335 141.217C526.32 126.097 536.5 111.483 550.92 104.262C571.895 93.7585 597.755 97.666 613.02 115.967C621.59 126.243 625.515 137.988 629.955 150.389L639.935 178.263C641.62 182.899 643.51 188.102 645.26 192.74C645.76 194.063 646.315 193.935 647.39 194.202C646.255 194.599 645.72 194.552 644.52 194.514C641.985 196.318 628.245 216.069 625.53 219.787C612.48 237.415 599.56 255.141 586.775 272.964C578.58 284.283 570.05 296.791 561.325 307.538Z" fill="#657DC3"/>
<path d="M592.7 390.441C604.76 383.187 616.565 375.233 628.46 367.683C645.95 356.582 663.39 345.336 680.85 334.193C690.905 327.774 700.96 321.181 712.145 316.901C741.12 305.27 790.35 304.166 808.775 334.506C814.56 344.112 816.25 355.637 813.46 366.497C807.035 391.647 780.27 402.889 760.955 416.793C754.035 421.775 746.235 426.724 739.035 431.343C736.515 432.961 734.56 433.421 731.555 433.041C731.34 433.723 731.315 434.182 731.64 434.904C738.96 451.15 744.66 468.143 751.23 484.701C752.955 489.055 755.67 492.989 757.19 497.459C758.905 502.52 759.945 507.785 760.285 513.12C761.845 540.495 740.675 561.275 713.915 561.9C680.23 562.68 648.805 539.025 634.1 509.88C632.35 506.425 630.765 502.885 629.345 499.276C625.19 488.487 591.605 394.942 591.69 391.847C591.71 391.095 592.19 390.92 592.7 390.441Z" fill="#70B190"/>
<path d="M592.7 390.441C604.76 383.187 616.565 375.233 628.46 367.683C645.95 356.582 663.39 345.336 680.85 334.193C690.905 327.774 700.96 321.181 712.145 316.901C741.12 305.27 790.35 304.166 808.775 334.506C814.56 344.112 816.25 355.637 813.46 366.497C807.035 391.647 780.27 402.889 760.955 416.793C754.035 421.775 746.235 426.724 739.035 431.343C736.515 432.961 734.56 433.421 731.555 433.041C731.63 432.704 731.515 432.351 731.47 432.008C728.22 429.669 703.76 423.182 698.375 421.596L630.03 401.238L604.795 393.841C600.89 392.714 596.43 391.727 592.7 390.441Z" fill="#86C8A8"/>
<path d="M294.004 433.428C279.978 424.472 265.891 415.613 251.744 406.849C243.568 401.703 234.025 396.373 226.851 390.078C218.11 382.119 210.941 369.585 210.92 357.502C210.863 324.783 242.104 309.881 270.363 309.347C285.067 308.998 299.69 311.636 313.345 317.101C327.109 322.656 340.203 331.636 352.827 339.614L400.961 370.265C405.586 373.209 427.591 386.704 430.073 389.099C431.25 389.733 433.429 390.819 434.481 391.52C427.214 412.787 419.735 433.981 412.046 455.1C398.572 493.043 389.4 533.725 349.859 552.81C333.17 560.865 315.042 565.09 296.98 559.065C285.337 555.285 275.687 547.005 270.175 536.075C260.392 516.42 267.828 501.91 274.96 483.478L285.94 454.617C287.378 450.893 290.619 443.309 291.702 439.826C292.494 438.051 293.342 435.332 294.004 433.428Z" fill="#9F4946"/>
<path d="M430.073 389.099C431.251 389.733 433.429 390.819 434.481 391.52C427.214 412.787 419.736 433.981 412.046 455.1C398.572 493.043 389.401 533.725 349.86 552.81C333.171 560.865 315.043 565.09 296.981 559.065C285.338 555.285 275.687 547.005 270.175 536.075C260.392 516.42 267.828 501.91 274.96 483.478L285.941 454.617C287.379 450.893 290.62 443.309 291.702 439.826C296.673 439.828 322.005 431.39 328.641 429.29L388.469 410.297L416.85 401.697C420.791 400.503 427.523 398.69 431.109 397.129C432.255 394.778 430.862 391.591 430.073 389.099Z" fill="#BB5956"/>
<path d="M718.37 708.245C721.305 708.23 729.48 707.655 730.545 710.555C734.135 720.335 764.42 794.45 763.215 798.775C759.215 801.14 747.65 800.205 743.09 799.25L735.66 778.995L717.75 778.925L697.855 778.97C695.835 785.035 693.165 793.72 690.53 799.28C689.64 799.465 688.745 799.615 687.845 799.73C684.135 800.19 675.185 800.93 672.21 798.585C673.045 792.66 677.71 781.39 679.985 775.41L693.89 739.195C695.66 734.57 703.58 712.855 705.46 709.82C708.515 707.715 714.42 708.25 718.37 708.245Z" fill="black"/>
<path d="M716.66 725.35C718.67 728 729.855 760.7 730.99 764.995L718.075 765.055L702.425 764.98C704.77 756.835 713.275 733.525 716.66 725.35Z" fill="#FAF9F9"/>
<path d="M358.261 708.175C362.125 707.97 367.829 707.475 371.048 709.535C372.736 712.685 372.061 739.55 372.053 745.32L409.845 745.225C409.994 739.125 409.324 713.425 410.646 709.895C413.617 707.58 426.397 707.385 429.277 710.125C430.131 716.49 430.056 796.725 428.941 798.77C427.108 799.895 425.7 799.83 423.515 800.05C418.284 800.25 415.309 800.085 410.211 799.135C409.591 787.45 409.987 772.61 409.9 760.635C398.304 760.275 383.738 760.395 372.134 760.75C372.053 768.54 372.065 776.335 372.17 784.125C372.19 787.7 372.275 793.44 371.916 796.835C371.348 802.2 355.901 799.93 352.292 799.21C351.863 794.13 351.752 776.975 352.013 772.73C352.576 763.585 350.764 712.68 352.985 709.355C354.702 708.33 356.216 708.385 358.261 708.175Z" fill="black"/>
<path d="M638.565 745.3C638.775 739.15 638.09 713.485 639.275 709.92C641.9 707.39 655.375 707.455 658.12 709.865C658.705 716.14 658.49 724.745 658.495 731.2L658.51 765.545C658.51 770.385 658.815 794.935 658.09 798.165C656.075 800.24 652.61 799.96 649.715 800.07C645.33 800.135 643.245 799.945 639.01 799.125C638.435 794.68 638.66 787.67 638.68 783.07C638.705 775.61 638.67 768.145 638.575 760.68C626.605 760.3 613.015 760.535 601.02 760.71C600.935 768.25 600.92 775.795 600.98 783.34C600.99 786.275 601.78 798.125 599.085 799.17C594.505 800.955 586.32 800.05 581.495 799.125C581.19 795.685 580.88 779.135 581.15 776.005C581.83 768.185 579.795 712.695 582.12 709.395C584.02 708.325 585.84 708.41 588.06 708.235C591.66 708.22 596.94 707.765 599.985 709.56C601.505 712.955 600.91 739.925 600.915 745.33C613.255 745.525 626.175 745.315 638.565 745.3Z" fill="black"/>
<path d="M502.12 708.195C505.645 708.09 512.52 707.425 515.06 709.685C516.52 713.96 515.88 743.58 515.85 750.19C526.465 737.305 535.875 722.6 546.775 709.995C549.165 707.225 560.51 708.445 564.21 708.525C565.55 708.55 566.08 709.34 566.8 710.3C567.225 715.025 558.87 723.24 555.715 727.06C549.305 734.815 542.96 742.625 536.685 750.49C542.375 759.635 555.835 777.71 562.215 786.215C564.79 789.655 569.98 795.13 566.965 799.31C563.34 801.24 552.025 800.01 547.815 799.265C544.77 795.88 539.51 787.53 536.545 783.245C529.77 773.52 522.92 763.85 515.99 754.23C515.845 767.225 516.015 780.25 515.87 793.235C515.855 794.6 515.675 797.84 514.63 798.575C510.84 801.265 500.385 799.955 496.079 799.215C495.096 771.76 496.409 743.6 495.845 716.08C495.808 714.27 495.751 711.06 496.737 709.55C498.485 708.37 499.993 708.43 502.12 708.195Z" fill="black"/>
<path d="M584.285 841.51C596.05 841.435 623.195 838.47 630.05 850.795C635.79 861.125 629.935 870.01 620.53 875.165C634.07 879.265 641.29 887.72 635.135 901.965C625.41 916.55 598.76 914.24 583.08 912.915C582.795 908.6 582.7 904.24 582.705 899.9C582.725 881.375 582.345 862.8 582.795 844.285C582.82 843.255 583.675 842.26 584.285 841.51Z" fill="black"/>
<path d="M592.94 880.025C603.49 879.91 625.49 877.055 626.4 892.47C626.645 896.61 625.445 899.15 622.9 902.315C615.12 908.015 602.685 906.565 592.88 906.52C592.74 897.69 592.76 888.855 592.94 880.025Z" fill="#FAF9F9"/>
<path d="M592.965 848.475C598.405 848.335 603.37 848.235 608.815 848.5C620.24 849.05 625.84 860.55 618.035 869.415C611.14 874.12 601.21 873.05 592.93 873.005C592.87 864.83 592.885 856.65 592.965 848.475Z" fill="#FAF9F9"/>
<path d="M301.564 707.2C308.574 706.505 318.94 707.355 325.277 710.755C330.921 713.785 331.019 721.13 327.857 726.165C327.54 726.365 327.224 726.565 326.908 726.765C320.44 725.185 316.654 722.21 309.733 721.265C302.979 720.345 291.573 723.255 291.723 731.68C291.876 740.29 310.504 745.41 317.313 748.705C328.424 754.08 336.632 761.315 335.08 775.105C334.426 782.3 333.313 786.06 327.986 791.31C319.42 799.75 309.365 801.245 297.824 801.285C290.703 801 272.453 799.855 270.317 790.545C269.723 787.95 270.15 782.46 271.622 780.085C274.656 778.605 286.029 786.1 291.126 786.305C298.755 786.605 307.582 788.05 312.821 781C320.735 770.35 304.189 763.84 296.611 760.79C285.774 756.295 272.699 750.26 271.717 736.565C270.281 716.535 283.969 709.06 301.564 707.2Z" fill="black"/>
<path d="M455.047 708.615C459.177 708.31 468.692 707.415 472.018 709.745C473.567 713.22 472.627 787.965 472.71 797.24C472.722 798.535 471.8 798.94 470.891 799.59C465.042 800.51 459.07 800.31 453.297 798.995C452.298 784.195 453.017 758.795 452.982 743.27L452.945 721.425C452.942 718.225 452.92 714.72 453.038 711.505C453.1 709.805 453.772 709.665 455.047 708.615Z" fill="black"/>
<path d="M548.63 841.63C552.78 841.315 554.775 841.26 558.92 841.495L559.02 849.25C559.07 861.8 559.175 874.42 558.975 886.935C558.735 907.71 541.84 916.125 523.2 914.425C510.985 913.695 499.161 907.105 497.226 893.94C495.913 885.015 496.405 874.435 496.424 865.275C496.439 857.9 496.02 848.88 496.71 841.595C500.845 841.235 502.715 841.325 506.9 841.615C507.265 852.265 506.83 862.975 506.93 873.61C507.015 882.66 505.615 893.375 511.775 900.8C518.44 908.83 535.045 909.105 542.49 902.18C548.155 896.905 548.84 889.175 548.64 881.95C548.695 868.535 548.24 855.03 548.63 841.63Z" fill="black"/>
<path d="M403.344 840.715C409.672 839.975 418.517 841.52 424.387 843.995C427.392 845.26 430.722 851.185 428.607 854.47C425.373 855.41 423.298 852.385 419.812 850.8C412.864 847.64 404.219 846.705 397.041 849.44C390.989 851.805 386.099 856.435 383.415 862.355C378.633 873.095 379.637 892.265 388.802 900.425C398.104 908.705 409.116 907.795 419.779 903.52C422.793 902.1 425.797 900.66 428.789 899.195C429.006 901.885 428.931 904.765 428.927 907.475C404.437 921.27 372.276 914.685 369.507 883.16C367.428 859.495 379.155 842.575 403.344 840.715Z" fill="black"/>
<path d="M444.553 841.585C448.543 841.3 450.676 841.34 454.691 841.565C455.595 860.675 454.874 886.265 454.766 905.69C459.491 905.845 483.838 905.28 486.266 906.525C487.566 908.8 487.042 910.56 486.681 913.155C481.034 913.445 449.598 913.76 445.25 912.825C443.963 909.79 443.939 848.855 444.553 841.585Z" fill="black"/>
<path d="M299.627 881.095C304.449 880.945 335.339 880.385 337.215 881.89C337.753 884.28 337.498 885.105 337.206 887.605C329.296 888.35 307.694 888.095 299.537 887.705C299.519 885.55 299.594 883.265 299.627 881.095Z" fill="black"/>
<path d="M680.41 881.14C691.845 880.845 705.47 880.675 717.01 881.295C718.545 881.38 717.86 886.39 717.38 887.69C706.27 888.395 694.17 887.92 682.99 887.815C678.895 887.775 679.95 884.205 680.41 881.14Z" fill="black"/>
</g>
<defs>
<clipPath id="clip0_7027_3">
<rect width="1024" height="1024" fill="white"/>
</clipPath>
</defs>
</svg>
